<?xml version="1.0" encoding="UTF-8" standalone="no"?>
<!-- Created with Inkscape (http://www.inkscape.org/) -->

<svg
   width="210mm"
   height="297mm"
   viewBox="0 0 210 297"
   version="1.1"
   id="svg1"
   inkscape:version="1.4.2 (ebf0e940d0, 2025-05-08)"
   sodipodi:docname="drawing.svg"
   inkscape:export-filename="drawing.png"
   inkscape:export-xdpi="96"
   inkscape:export-ydpi="96"
   xmlns:inkscape="http://www.inkscape.org/namespaces/inkscape"
   xmlns:sodipodi="http://sodipodi.sourceforge.net/DTD/sodipodi-0.dtd"
   xmlns="http://www.w3.org/2000/svg"
   xmlns:svg="http://www.w3.org/2000/svg">
  <sodipodi:namedview
     id="namedview1"
     pagecolor="#ffffff"
     bordercolor="#000000"
     borderopacity="0.25"
     inkscape:showpageshadow="2"
     inkscape:pageopacity="0.0"
     inkscape:pagecheckerboard="0"
     inkscape:deskcolor="#d1d1d1"
     inkscape:document-units="mm"
     inkscape:zoom="0.65566779"
     inkscape:cx="318.75899"
     inkscape:cy="634.46765"
     inkscape:window-width="1920"
     inkscape:window-height="1200"
     inkscape:window-x="0"
     inkscape:window-y="0"
     inkscape:window-maximized="1"
     inkscape:current-layer="layer1"
     inkscape:export-bgcolor="#ffffffff" />
  <defs
     id="defs1" />
  <g
     inkscape:label="Layer 1"
     inkscape:groupmode="layer"
     id="layer1">
    <path
       sodipodi:type="spiral"
       style="fill:none;fill-rule:evenodd;stroke:#000000;stroke-width:2.065;stroke-dasharray:none"
       id="path1"
       sodipodi:cx="73.039406"
       sodipodi:cy="74.25"
       sodipodi:expansion="1"
       sodipodi:revolution="2.4015763"
       sodipodi:radius="69.572815"
       sodipodi:argument="-13.107006"
       sodipodi:t0="0"
       d="m 73.039406,74.25 c 3.73602,-2.24271 4.866348,3.929607 3.727531,6.209512 -3.086125,6.1784 -11.727167,5.137254 -16.146555,1.24555 -7.905248,-6.961346 -5.92416,-19.416292 1.236431,-26.083597 10.508454,-9.784539 27.219958,-6.762702 36.02064,3.718411 C 109.60738,73.30955 105.5024,94.405501 91.677061,105.29756 74.279288,119.0041 48.745423,113.79735 35.782335,96.615186 20.082298,75.805286 26.400337,45.806011 46.946688,30.783417 71.159853,13.079811 105.6406,20.514577 122.7155,44.429751 c 19.71365,27.611015 11.15877,66.583439 -16.12831,85.705859 -17.773132,12.45516 -41.039804,15.19955 -61.391547,7.87254" />
    <path
       sodipodi:type="spiral"
       style="fill:none;fill-rule:evenodd;stroke:#000000;stroke-width:2.065;stroke-dasharray:none"
       id="path2"
       sodipodi:cx="132.35869"
       sodipodi:cy="212.25815"
       sodipodi:expansion="1"
       sodipodi:revolution="2.4015763"
       sodipodi:radius="70.733406"
       sodipodi:argument="-14.105173"
       sodipodi:t0="0"
       d="m 132.35869,212.25815 c 0.14171,-4.4279 6.03863,-1.99354 7.35946,0.23554 3.57935,6.04066 -2.07051,12.85088 -7.83054,14.48338 -10.30333,2.92014 -19.85473,-5.63391 -21.6073,-15.42553 -2.57196,-14.36961 9.21628,-26.98491 23.02053,-28.73123 18.3989,-2.32756 34.16402,12.80153 35.85514,30.61553 2.12811,22.41709 -16.38722,41.36746 -38.21052,42.97906 -26.43093,1.95187 -48.584809,-19.97298 -50.102984,-45.80552 -1.789117,-30.44275 23.558734,-55.81085 53.400514,-57.2269 34.45352,-1.63489 63.04271,27.14449 64.35083,60.99551 0.85202,22.04846 -9.6201,43.44167 -27.09245,56.79591" />
    <path
       style="fill:#1a1a1a;stroke-width:0.264583"
       d="m 23.001359,195.71331 97.654881,-60.12636 c 0,0 47.21332,29.45788 39.14267,53.26631 -8.07066,23.80842 -31.47555,-4.43886 -31.47555,-4.43886 0,0 -7.26358,-16.94837 9.68479,-11.70245 16.94836,5.24593 -17.35191,-24.61548 -17.35191,-24.61548 L 16.544835,223.15353 Z"
       id="path3"
       sodipodi:nodetypes="ccscsccc" />
    <path
       style="fill:#1a1a1a;stroke-width:0.264583"
       d="m 23.808424,194.90625 h 20.983695 l 9.684782,69.40761 c 0,0 -10.89538,29.45788 -20.580162,10.08832 -9.684783,-19.36957 -3.631793,-26.22963 4.035327,-22.59784 7.667119,3.6318 -14.123642,-56.89809 -14.123642,-56.89809 z"
       id="path4" />
    <path
       style="fill:#1a1a1a;stroke-width:2.065;stroke-dasharray:none"
       d="m 126.70924,53.669837 c 2.42119,0 77.42688,-24.505078 62.14402,128.323363 -0.40353,4.03533 71.8288,-132.35869 -54.4769,-110.164395"
       id="path5"
       sodipodi:nodetypes="csc" />
  </g>
</svg>
