M48
; DRILL file {KiCad 9.0.2} date 2025-07-27T21:28:42+0530
; FORMAT={-:-/ absolute / metric / decimal}
; #@! TF.CreationDate,2025-07-27T21:28:42+05:30
; #@! TF.GenerationSoftware,Kicad,Pcbnew,9.0.2
; #@! TF.FileFunction,Plated,1,4,PTH
FMAT,2
METRIC
; #@! TA.AperFunction,Plated,PTH,ViaDrill
T1C0.300
; #@! TA.AperFunction,Plated,PTH,ComponentDrill
T2C0.500
; #@! TA.AperFunction,Plated,PTH,ComponentDrill
T3C0.780
; #@! TA.AperFunction,Plated,PTH,ComponentDrill
T4C1.000
%
G90
G05
T1
X102.137Y-88.55
X102.737Y-87.55
X102.737Y-89.35
X103.2Y-84.8
X104.6Y-85.4
X106.55Y-86.95
X106.7Y-83.95
X107.2Y-85.4
X108.0Y-84.725
X117.8Y-73.5
X118.15Y-71.625
X118.6Y-98.275
X119.3Y-70.925
X119.3Y-95.6
X119.802Y-97.399
X120.075Y-99.0
X120.25Y-78.2
X120.875Y-76.575
X120.89Y-77.51
X121.0Y-70.8
X121.425Y-78.825
X121.687Y-77.578
X122.077Y-70.775
X122.175Y-76.325
X122.2Y-74.1
X123.25Y-94.15
X123.829Y-98.85
X124.125Y-74.225
X124.225Y-80.2
X124.7Y-97.2
X124.766Y-73.746
X124.9Y-81.375
X125.029Y-100.1
X125.364Y-74.277
X125.85Y-77.45
X126.15Y-76.45
X126.35Y-80.05
X127.05Y-81.15
X128.6Y-80.25
X128.675Y-74.8
X128.7Y-71.2
X128.7Y-72.45
X128.725Y-73.7
X128.85Y-84.075
X129.396Y-85.135
X129.438Y-81.15
X129.465Y-74.927
X129.498Y-72.505
X129.55Y-73.7
X129.6Y-71.15
X130.9Y-84.9
X131.375Y-80.175
X131.675Y-86.875
X131.7Y-83.825
X131.7Y-85.025
X132.075Y-81.375
X132.225Y-68.6
X134.3Y-77.7
X138.3Y-77.55
X139.325Y-111.4
T2
X99.2Y-87.0
X99.2Y-88.0
X99.2Y-89.0
X99.2Y-90.0
T3
X117.355Y-103.24
X117.355Y-105.78
X117.355Y-108.32
X117.355Y-110.86
X125.295Y-103.24
X125.295Y-105.78
X125.295Y-108.32
X125.295Y-110.86
T4
X119.7Y-66.0
X121.652Y-66.0
X123.7Y-66.0
X125.7Y-66.0
X127.7Y-66.0
X129.7Y-66.0
X133.4Y-112.7
X135.4Y-112.7
X137.4Y-112.7
X139.4Y-112.7
X141.4Y-112.7
X143.4Y-112.7
M30
