%TF.GenerationSoftware,KiCad,Pcbnew,9.0.2*%
%TF.CreationDate,2025-07-27T21:28:39+05:30*%
%TF.ProjectId,dac,6461632e-6b69-4636-9164-5f7063625858,rev?*%
%TF.SameCoordinates,Original*%
%TF.FileFunction,Copper,L3,Inr*%
%TF.FilePolarity,Positive*%
%FSLAX46Y46*%
G04 Gerber Fmt 4.6, Leading zero omitted, Abs format (unit mm)*
G04 Created by KiCad (PCBNEW 9.0.2) date 2025-07-27 21:28:39*
%MOMM*%
%LPD*%
G01*
G04 APERTURE LIST*
%TA.AperFunction,ComponentPad*%
%ADD10R,0.850000X0.850000*%
%TD*%
%TA.AperFunction,ComponentPad*%
%ADD11C,0.850000*%
%TD*%
%TA.AperFunction,ComponentPad*%
%ADD12R,1.130000X1.130000*%
%TD*%
%TA.AperFunction,ComponentPad*%
%ADD13C,1.130000*%
%TD*%
%TA.AperFunction,ComponentPad*%
%ADD14C,1.500000*%
%TD*%
%TA.AperFunction,ComponentPad*%
%ADD15R,1.270000X1.905000*%
%TD*%
%TA.AperFunction,ViaPad*%
%ADD16C,0.600000*%
%TD*%
%TA.AperFunction,Conductor*%
%ADD17C,0.200000*%
%TD*%
G04 APERTURE END LIST*
D10*
%TO.N,+5V*%
%TO.C,J3*%
X99200000Y-87000000D03*
D11*
%TO.N,unconnected-(J3-Pin_2-Pad2)*%
X99200000Y-88000000D03*
%TO.N,unconnected-(J3-Pin_3-Pad3)*%
X99200000Y-89000000D03*
%TO.N,GND*%
X99200000Y-90000000D03*
%TD*%
D12*
%TO.N,Net-(U3-OUT_A)*%
%TO.C,U3*%
X117355000Y-103240000D03*
D13*
%TO.N,Net-(U3--IN_A)*%
X117355000Y-105780000D03*
%TO.N,AGND*%
X117355000Y-108320000D03*
X117355000Y-110860000D03*
X125295000Y-110860000D03*
%TO.N,Net-(U3--IN_B)*%
X125295000Y-108320000D03*
%TO.N,Net-(U3-OUT_B)*%
X125295000Y-105780000D03*
%TO.N,+5V*%
X125295000Y-103240000D03*
%TD*%
D14*
%TO.N,Net-(C12-Pad1)*%
%TO.C,RV1*%
X137400000Y-112700000D03*
%TO.N,Net-(R5-Pad1)*%
X139400000Y-112700000D03*
%TO.N,AGND*%
X141400000Y-112700000D03*
%TO.N,Net-(C3-Pad2)*%
X135400000Y-112700000D03*
%TO.N,Net-(R6-Pad1)*%
X133400000Y-112700000D03*
%TO.N,AGND*%
X143400000Y-112700000D03*
%TD*%
D15*
%TO.N,AGND*%
%TO.C,J1*%
X119700000Y-66000000D03*
%TO.N,LCK*%
X121652000Y-66000000D03*
%TO.N,DAT*%
X123700000Y-66000000D03*
%TO.N,BCK*%
X125700000Y-66000000D03*
%TO.N,SCK*%
X127700000Y-66000000D03*
%TO.N,GND*%
X129700000Y-66000000D03*
%TD*%
D16*
%TO.N,GND*%
X121425000Y-78825000D03*
X107200000Y-85400000D03*
X122076735Y-70775000D03*
X125850000Y-77450000D03*
X117800000Y-73500000D03*
X122200000Y-74100000D03*
X104600000Y-85400000D03*
X102137500Y-88550000D03*
X108000000Y-84725000D03*
X122175000Y-76325000D03*
X118150000Y-71625000D03*
X121687093Y-77578172D03*
%TO.N,+5V*%
X103200000Y-84800000D03*
X102737500Y-87550000D03*
X102737500Y-89350000D03*
%TO.N,3.3V*%
X106700000Y-83950000D03*
X120250000Y-78200000D03*
X120875000Y-76575000D03*
X128700000Y-72450000D03*
X106550000Y-86950000D03*
X125364048Y-74276939D03*
X121000000Y-70800000D03*
X119300000Y-70925000D03*
X120890000Y-77510000D03*
X128675000Y-74800000D03*
X128700000Y-71200000D03*
X128725000Y-73700000D03*
%TO.N,AGND*%
X131675000Y-86875000D03*
X131700000Y-83825000D03*
X129600000Y-71150000D03*
X132225000Y-68600000D03*
X131700000Y-85025000D03*
X128600000Y-80250000D03*
X129498106Y-72505042D03*
X129550000Y-73700000D03*
X131375000Y-80175000D03*
X129464796Y-74927386D03*
X126150000Y-76450000D03*
%TO.N,Net-(C10-Pad2)*%
X129437504Y-81150001D03*
X127050000Y-81150000D03*
%TO.N,Net-(C11-Pad2)*%
X132075000Y-81375000D03*
X124900000Y-81375000D03*
X128850000Y-84075000D03*
%TO.N,Net-(C12-Pad1)*%
X130900000Y-84900000D03*
X129396000Y-85134600D03*
%TO.N,Net-(U3-OUT_A)*%
X119300000Y-95600000D03*
X123829000Y-98850000D03*
X134300000Y-77700000D03*
%TO.N,Net-(U3--IN_B)*%
X124700000Y-97200000D03*
X118600000Y-98275000D03*
%TO.N,Net-(U3-OUT_B)*%
X120075000Y-99000000D03*
X138300000Y-77550000D03*
X119802474Y-97399000D03*
%TO.N,Net-(U1-OUTL)*%
X124125000Y-74225000D03*
X124225000Y-80200000D03*
%TO.N,Net-(U1-OUTR)*%
X124765693Y-73745926D03*
X126350000Y-80050000D03*
%TO.N,Net-(R5-Pad1)*%
X125029000Y-100100000D03*
X123250000Y-94150000D03*
X139325000Y-111400000D03*
%TD*%
D17*
%TO.N,GND*%
X118150000Y-73150000D02*
X117800000Y-73500000D01*
X118150000Y-71625000D02*
X118150000Y-73150000D01*
%TO.N,+5V*%
X103200000Y-86400000D02*
X103200000Y-84800000D01*
X102393750Y-87206250D02*
X103200000Y-86400000D01*
X102737500Y-87550000D02*
X106425000Y-87550000D01*
X99200000Y-87000000D02*
X102187500Y-87000000D01*
X122115000Y-103240000D02*
X125295000Y-103240000D01*
X102737500Y-89350000D02*
X102737500Y-87550000D01*
X102187500Y-87000000D02*
X102393750Y-87206250D01*
X102393750Y-87206250D02*
X102737500Y-87550000D01*
X106425000Y-87550000D02*
X122115000Y-103240000D01*
%TO.N,3.3V*%
X125364048Y-74276939D02*
X128151939Y-74276939D01*
X106550000Y-86950000D02*
X106550000Y-84100000D01*
X120890000Y-76590000D02*
X120875000Y-76575000D01*
X106700000Y-83950000D02*
X107225000Y-83950000D01*
X113050000Y-78125000D02*
X120175000Y-78125000D01*
X120875000Y-76575000D02*
X121000000Y-76450000D01*
X128725000Y-73700000D02*
X128725000Y-72475000D01*
X128700000Y-71200000D02*
X128425000Y-71475000D01*
X120175000Y-78125000D02*
X120250000Y-78200000D01*
X106550000Y-84100000D02*
X106700000Y-83950000D01*
X107225000Y-83950000D02*
X113050000Y-78125000D01*
X128425000Y-71475000D02*
X121675000Y-71475000D01*
X121675000Y-71475000D02*
X121000000Y-70800000D01*
X128151939Y-74276939D02*
X128675000Y-74800000D01*
X121000000Y-76450000D02*
X121000000Y-70800000D01*
X128725000Y-72475000D02*
X128700000Y-72450000D01*
X120890000Y-77510000D02*
X120890000Y-76590000D01*
%TD*%
M02*
