%TF.GenerationSoftware,KiCad,Pcbnew,9.0.2*%
%TF.CreationDate,2025-07-27T21:28:39+05:30*%
%TF.ProjectId,dac,6461632e-6b69-4636-9164-5f7063625858,rev?*%
%TF.SameCoordinates,Original*%
%TF.FileFunction,Copper,L4,Bot*%
%TF.FilePolarity,Positive*%
%FSLAX46Y46*%
G04 Gerber Fmt 4.6, Leading zero omitted, Abs format (unit mm)*
G04 Created by KiCad (PCBNEW 9.0.2) date 2025-07-27 21:28:39*
%MOMM*%
%LPD*%
G01*
G04 APERTURE LIST*
%TA.AperFunction,ComponentPad*%
%ADD10R,0.850000X0.850000*%
%TD*%
%TA.AperFunction,ComponentPad*%
%ADD11C,0.850000*%
%TD*%
%TA.AperFunction,ComponentPad*%
%ADD12R,1.130000X1.130000*%
%TD*%
%TA.AperFunction,ComponentPad*%
%ADD13C,1.130000*%
%TD*%
%TA.AperFunction,ComponentPad*%
%ADD14C,1.500000*%
%TD*%
%TA.AperFunction,ComponentPad*%
%ADD15R,1.270000X1.905000*%
%TD*%
%TA.AperFunction,ViaPad*%
%ADD16C,0.600000*%
%TD*%
%TA.AperFunction,Conductor*%
%ADD17C,0.200000*%
%TD*%
G04 APERTURE END LIST*
D10*
%TO.P,J3,1,Pin_1*%
%TO.N,+5V*%
X99200000Y-87000000D03*
D11*
%TO.P,J3,2,Pin_2*%
%TO.N,unconnected-(J3-Pin_2-Pad2)*%
X99200000Y-88000000D03*
%TO.P,J3,3,Pin_3*%
%TO.N,unconnected-(J3-Pin_3-Pad3)*%
X99200000Y-89000000D03*
%TO.P,J3,4,Pin_4*%
%TO.N,GND*%
X99200000Y-90000000D03*
%TD*%
D12*
%TO.P,U3,1,OUT_A*%
%TO.N,Net-(U3-OUT_A)*%
X117355000Y-103240000D03*
D13*
%TO.P,U3,2,-IN_A*%
%TO.N,Net-(U3--IN_A)*%
X117355000Y-105780000D03*
%TO.P,U3,3,+IN_A*%
%TO.N,AGND*%
X117355000Y-108320000D03*
%TO.P,U3,4,V-*%
X117355000Y-110860000D03*
%TO.P,U3,5,+IN_B*%
X125295000Y-110860000D03*
%TO.P,U3,6,-IN_B*%
%TO.N,Net-(U3--IN_B)*%
X125295000Y-108320000D03*
%TO.P,U3,7,OUT_B*%
%TO.N,Net-(U3-OUT_B)*%
X125295000Y-105780000D03*
%TO.P,U3,8,V+*%
%TO.N,+5V*%
X125295000Y-103240000D03*
%TD*%
D14*
%TO.P,RV1,1,1*%
%TO.N,Net-(C12-Pad1)*%
X137400000Y-112700000D03*
%TO.P,RV1,2,2*%
%TO.N,Net-(R5-Pad1)*%
X139400000Y-112700000D03*
%TO.P,RV1,3,3*%
%TO.N,AGND*%
X141400000Y-112700000D03*
%TO.P,RV1,4,4*%
%TO.N,Net-(C3-Pad2)*%
X135400000Y-112700000D03*
%TO.P,RV1,5,5*%
%TO.N,Net-(R6-Pad1)*%
X133400000Y-112700000D03*
%TO.P,RV1,6,6*%
%TO.N,AGND*%
X143400000Y-112700000D03*
%TD*%
D15*
%TO.P,J1,1,Pin_1*%
%TO.N,AGND*%
X119700000Y-66000000D03*
%TO.P,J1,2,Pin_2*%
%TO.N,LCK*%
X121652000Y-66000000D03*
%TO.P,J1,3,Pin_3*%
%TO.N,DAT*%
X123700000Y-66000000D03*
%TO.P,J1,4,Pin_4*%
%TO.N,BCK*%
X125700000Y-66000000D03*
%TO.P,J1,5,Pin_5*%
%TO.N,SCK*%
X127700000Y-66000000D03*
%TO.P,J1,6,Pin_6*%
%TO.N,GND*%
X129700000Y-66000000D03*
%TD*%
D16*
%TO.N,GND*%
X121425000Y-78825000D03*
X107200000Y-85400000D03*
X122076735Y-70775000D03*
X125850000Y-77450000D03*
X117800000Y-73500000D03*
X122200000Y-74100000D03*
X104600000Y-85400000D03*
X102137500Y-88550000D03*
X108000000Y-84725000D03*
X122175000Y-76325000D03*
X118150000Y-71625000D03*
X121687093Y-77578172D03*
%TO.N,+5V*%
X103200000Y-84800000D03*
X102737500Y-87550000D03*
X102737500Y-89350000D03*
%TO.N,3.3V*%
X106700000Y-83950000D03*
X120250000Y-78200000D03*
X120875000Y-76575000D03*
X128700000Y-72450000D03*
X106550000Y-86950000D03*
X125364048Y-74276939D03*
X121000000Y-70800000D03*
X119300000Y-70925000D03*
X120890000Y-77510000D03*
X128675000Y-74800000D03*
X128700000Y-71200000D03*
X128725000Y-73700000D03*
%TO.N,AGND*%
X131675000Y-86875000D03*
X131700000Y-83825000D03*
X129600000Y-71150000D03*
X132225000Y-68600000D03*
X131700000Y-85025000D03*
X128600000Y-80250000D03*
X129498106Y-72505042D03*
X129550000Y-73700000D03*
X131375000Y-80175000D03*
X129464796Y-74927386D03*
X126150000Y-76450000D03*
%TO.N,Net-(C10-Pad2)*%
X129437504Y-81150001D03*
X127050000Y-81150000D03*
%TO.N,Net-(C11-Pad2)*%
X132075000Y-81375000D03*
X124900000Y-81375000D03*
X128850000Y-84075000D03*
%TO.N,Net-(C12-Pad1)*%
X130900000Y-84900000D03*
X129396000Y-85134600D03*
%TO.N,Net-(U3-OUT_A)*%
X119300000Y-95600000D03*
X123829000Y-98850000D03*
X134300000Y-77700000D03*
%TO.N,Net-(U3--IN_B)*%
X124700000Y-97200000D03*
X118600000Y-98275000D03*
%TO.N,Net-(U3-OUT_B)*%
X120075000Y-99000000D03*
X138300000Y-77550000D03*
X119802474Y-97399000D03*
%TO.N,Net-(U1-OUTL)*%
X124125000Y-74225000D03*
X124225000Y-80200000D03*
%TO.N,Net-(U1-OUTR)*%
X124765693Y-73745926D03*
X126350000Y-80050000D03*
%TO.N,Net-(R5-Pad1)*%
X125029000Y-100100000D03*
X123250000Y-94150000D03*
X139325000Y-111400000D03*
%TD*%
D17*
%TO.N,3.3V*%
X125364048Y-74276939D02*
X125400000Y-74240987D01*
%TO.N,Net-(C10-Pad2)*%
X127050000Y-81150000D02*
X129437503Y-81150000D01*
X129437503Y-81150000D02*
X129437504Y-81150001D01*
%TO.N,Net-(C11-Pad2)*%
X125275000Y-81750000D02*
X131700000Y-81750000D01*
X132075000Y-81375000D02*
X129375000Y-84075000D01*
X131700000Y-81750000D02*
X132075000Y-81375000D01*
X124900000Y-81375000D02*
X125275000Y-81750000D01*
X129375000Y-84075000D02*
X128850000Y-84075000D01*
%TO.N,Net-(C12-Pad1)*%
X129396000Y-85134600D02*
X130665400Y-85134600D01*
X130665400Y-85134600D02*
X130900000Y-84900000D01*
%TO.N,Net-(U3-OUT_A)*%
X124651057Y-80774000D02*
X126576057Y-80774000D01*
X126576057Y-80774000D02*
X129650057Y-77700000D01*
X117355000Y-97545000D02*
X117355000Y-103240000D01*
X117355000Y-103240000D02*
X119439000Y-103240000D01*
X119300000Y-95600000D02*
X119300000Y-86125057D01*
X119300000Y-86125057D02*
X124651057Y-80774000D01*
X129650057Y-77700000D02*
X134300000Y-77700000D01*
X119439000Y-103240000D02*
X123829000Y-98850000D01*
X119300000Y-95600000D02*
X117355000Y-97545000D01*
%TO.N,Net-(U3--IN_B)*%
X124700000Y-97200000D02*
X124429000Y-97471000D01*
X123625000Y-98275000D02*
X118600000Y-98275000D01*
X124429000Y-97471000D02*
X124429000Y-107454000D01*
X124429000Y-107454000D02*
X125295000Y-108320000D01*
X124700000Y-97200000D02*
X123625000Y-98275000D01*
%TO.N,Net-(U3-OUT_B)*%
X119802474Y-97399000D02*
X119802474Y-96747583D01*
X118626057Y-97399000D02*
X117999000Y-98026057D01*
X131839343Y-85735600D02*
X138300000Y-79274943D01*
X118475057Y-99000000D02*
X120075000Y-99000000D01*
X138300000Y-79274943D02*
X138300000Y-77550000D01*
X119802474Y-97399000D02*
X118626057Y-97399000D01*
X119802474Y-96747583D02*
X130814457Y-85735600D01*
X117999000Y-98026057D02*
X117999000Y-98523943D01*
X117999000Y-98523943D02*
X118475057Y-99000000D01*
X130814457Y-85735600D02*
X131839343Y-85735600D01*
%TO.N,Net-(U1-OUTL)*%
X124125000Y-74225000D02*
X124225000Y-74325000D01*
X124225000Y-74325000D02*
X124225000Y-80200000D01*
%TO.N,Net-(U1-OUTR)*%
X124765693Y-73745926D02*
X124726000Y-73785619D01*
X124726000Y-73785619D02*
X124726000Y-78426000D01*
X124726000Y-78426000D02*
X126350000Y-80050000D01*
%TO.N,Net-(R5-Pad1)*%
X126004000Y-99125000D02*
X129100000Y-99125000D01*
X129100000Y-99125000D02*
X129100000Y-93150000D01*
X125029000Y-100100000D02*
X126004000Y-99125000D01*
X129100000Y-101175000D02*
X129100000Y-99125000D01*
X124250000Y-93150000D02*
X123250000Y-94150000D01*
X139325000Y-111400000D02*
X129100000Y-101175000D01*
X129100000Y-93150000D02*
X124250000Y-93150000D01*
%TD*%
M02*
