%TF.GenerationSoftware,KiCad,Pcbnew,9.0.2*%
%TF.CreationDate,2025-08-05T13:11:17+05:30*%
%TF.ProjectId,dac,6461632e-6b69-4636-9164-5f7063625858,rev?*%
%TF.SameCoordinates,Original*%
%TF.FileFunction,Copper,L1,Top*%
%TF.FilePolarity,Positive*%
%FSLAX46Y46*%
G04 Gerber Fmt 4.6, Leading zero omitted, Abs format (unit mm)*
G04 Created by KiCad (PCBNEW 9.0.2) date 2025-08-05 13:11:17*
%MOMM*%
%LPD*%
G01*
G04 APERTURE LIST*
G04 Aperture macros list*
%AMRoundRect*
0 Rectangle with rounded corners*
0 $1 Rounding radius*
0 $2 $3 $4 $5 $6 $7 $8 $9 X,Y pos of 4 corners*
0 Add a 4 corners polygon primitive as box body*
4,1,4,$2,$3,$4,$5,$6,$7,$8,$9,$2,$3,0*
0 Add four circle primitives for the rounded corners*
1,1,$1+$1,$2,$3*
1,1,$1+$1,$4,$5*
1,1,$1+$1,$6,$7*
1,1,$1+$1,$8,$9*
0 Add four rect primitives between the rounded corners*
20,1,$1+$1,$2,$3,$4,$5,0*
20,1,$1+$1,$4,$5,$6,$7,0*
20,1,$1+$1,$6,$7,$8,$9,0*
20,1,$1+$1,$8,$9,$2,$3,0*%
G04 Aperture macros list end*
%TA.AperFunction,ComponentPad*%
%ADD10R,1.270000X1.905000*%
%TD*%
%TA.AperFunction,SMDPad,CuDef*%
%ADD11RoundRect,0.100000X-0.130000X-0.100000X0.130000X-0.100000X0.130000X0.100000X-0.130000X0.100000X0*%
%TD*%
%TA.AperFunction,SMDPad,CuDef*%
%ADD12R,1.200000X2.500000*%
%TD*%
%TA.AperFunction,SMDPad,CuDef*%
%ADD13RoundRect,0.100000X0.130000X0.100000X-0.130000X0.100000X-0.130000X-0.100000X0.130000X-0.100000X0*%
%TD*%
%TA.AperFunction,SMDPad,CuDef*%
%ADD14RoundRect,0.150000X-0.512500X-0.150000X0.512500X-0.150000X0.512500X0.150000X-0.512500X0.150000X0*%
%TD*%
%TA.AperFunction,SMDPad,CuDef*%
%ADD15RoundRect,0.100000X0.100000X-0.637500X0.100000X0.637500X-0.100000X0.637500X-0.100000X-0.637500X0*%
%TD*%
%TA.AperFunction,ComponentPad*%
%ADD16R,0.850000X0.850000*%
%TD*%
%TA.AperFunction,ComponentPad*%
%ADD17C,0.850000*%
%TD*%
%TA.AperFunction,ComponentPad*%
%ADD18R,1.130000X1.130000*%
%TD*%
%TA.AperFunction,ComponentPad*%
%ADD19C,1.130000*%
%TD*%
%TA.AperFunction,ComponentPad*%
%ADD20C,1.500000*%
%TD*%
%TA.AperFunction,ViaPad*%
%ADD21C,0.600000*%
%TD*%
%TA.AperFunction,Conductor*%
%ADD22C,0.200000*%
%TD*%
G04 APERTURE END LIST*
D10*
%TO.P,J1,1,Pin_1*%
%TO.N,AGND*%
X119700000Y-66000000D03*
%TO.P,J1,2,Pin_2*%
%TO.N,LCK*%
X121652000Y-66000000D03*
%TO.P,J1,3,Pin_3*%
%TO.N,DAT*%
X123700000Y-66000000D03*
%TO.P,J1,4,Pin_4*%
%TO.N,BCK*%
X125700000Y-66000000D03*
%TO.P,J1,5,Pin_5*%
%TO.N,SCK*%
X127700000Y-66000000D03*
%TO.P,J1,6,Pin_6*%
%TO.N,GND*%
X129700000Y-66000000D03*
%TD*%
D11*
%TO.P,C4,1*%
%TO.N,3.3V*%
X120880000Y-78200000D03*
%TO.P,C4,2*%
%TO.N,GND*%
X121520000Y-78200000D03*
%TD*%
%TO.P,C8,1*%
%TO.N,3.3V*%
X128735000Y-74200000D03*
%TO.P,C8,2*%
%TO.N,AGND*%
X129375000Y-74200000D03*
%TD*%
D12*
%TO.P,J4,R1*%
%TO.N,Net-(U3-OUT_B)*%
X138250000Y-75850000D03*
%TO.P,J4,R2*%
%TO.N,unconnected-(J4-PadR2)*%
X141250000Y-75850000D03*
%TO.P,J4,S*%
%TO.N,AGND*%
X133150000Y-69350000D03*
%TO.P,J4,T*%
%TO.N,Net-(U3-OUT_A)*%
X134250000Y-75850000D03*
%TD*%
D11*
%TO.P,R4,1*%
%TO.N,Net-(C10-Pad2)*%
X128825000Y-87025000D03*
%TO.P,R4,2*%
%TO.N,Net-(C3-Pad2)*%
X129465000Y-87025000D03*
%TD*%
%TO.P,R6,1*%
%TO.N,Net-(R6-Pad1)*%
X123225000Y-97200000D03*
%TO.P,R6,2*%
%TO.N,Net-(U3--IN_B)*%
X123865000Y-97200000D03*
%TD*%
%TO.P,C9,1*%
%TO.N,3.3V*%
X128680000Y-71800000D03*
%TO.P,C9,2*%
%TO.N,AGND*%
X129320000Y-71800000D03*
%TD*%
%TO.P,R3,1*%
%TO.N,Net-(U1-OUTR)*%
X126430000Y-80700000D03*
%TO.P,R3,2*%
%TO.N,Net-(C10-Pad2)*%
X127070000Y-80700000D03*
%TD*%
%TO.P,C15,1*%
%TO.N,GND*%
X118405000Y-73475000D03*
%TO.P,C15,2*%
%TO.N,Net-(U1-LDOO)*%
X119045000Y-73475000D03*
%TD*%
D13*
%TO.P,C7,1*%
%TO.N,GND*%
X121565000Y-68075000D03*
%TO.P,C7,2*%
%TO.N,3.3V*%
X120925000Y-68075000D03*
%TD*%
D11*
%TO.P,C6,1*%
%TO.N,Net-(U1-VNEG)*%
X125135000Y-78200000D03*
%TO.P,C6,2*%
%TO.N,GND*%
X125775000Y-78200000D03*
%TD*%
D14*
%TO.P,U2,1,IN*%
%TO.N,+5V*%
X104262500Y-87450000D03*
%TO.P,U2,2,GND*%
%TO.N,GND*%
X104262500Y-88400000D03*
%TO.P,U2,3,EN*%
%TO.N,+5V*%
X104262500Y-89350000D03*
%TO.P,U2,4,NC*%
%TO.N,unconnected-(U2-NC-Pad4)*%
X106537500Y-89350000D03*
%TO.P,U2,5,OUT*%
%TO.N,3.3V*%
X106537500Y-87450000D03*
%TD*%
D15*
%TO.P,U1,1,CPVDD*%
%TO.N,3.3V*%
X120875000Y-75262500D03*
%TO.P,U1,2,CAPP*%
%TO.N,Net-(U1-CAPP)*%
X121525000Y-75262500D03*
%TO.P,U1,3,CPGND*%
%TO.N,GND*%
X122175000Y-75262500D03*
%TO.P,U1,4,CAPM*%
%TO.N,Net-(U1-CAPM)*%
X122825000Y-75262500D03*
%TO.P,U1,5,VNEG*%
%TO.N,Net-(U1-VNEG)*%
X123475000Y-75262500D03*
%TO.P,U1,6,OUTL*%
%TO.N,Net-(U1-OUTL)*%
X124125000Y-75262500D03*
%TO.P,U1,7,OUTR*%
%TO.N,Net-(U1-OUTR)*%
X124775000Y-75262500D03*
%TO.P,U1,8,AVDD*%
%TO.N,3.3V*%
X125425000Y-75262500D03*
%TO.P,U1,9,AGND*%
%TO.N,AGND*%
X126075000Y-75262500D03*
%TO.P,U1,10,DEMP*%
%TO.N,unconnected-(U1-DEMP-Pad10)*%
X126725000Y-75262500D03*
%TO.P,U1,11,FLT*%
%TO.N,unconnected-(U1-FLT-Pad11)*%
X126725000Y-69537500D03*
%TO.P,U1,12,SCK*%
%TO.N,SCK*%
X126075000Y-69537500D03*
%TO.P,U1,13,BCK*%
%TO.N,BCK*%
X125425000Y-69537500D03*
%TO.P,U1,14,DIN*%
%TO.N,DAT*%
X124775000Y-69537500D03*
%TO.P,U1,15,LRCK*%
%TO.N,LCK*%
X124125000Y-69537500D03*
%TO.P,U1,16,FMT*%
%TO.N,unconnected-(U1-FMT-Pad16)*%
X123475000Y-69537500D03*
%TO.P,U1,17,XSMT*%
%TO.N,unconnected-(U1-XSMT-Pad17)*%
X122825000Y-69537500D03*
%TO.P,U1,18,LDOO*%
%TO.N,Net-(U1-LDOO)*%
X122175000Y-69537500D03*
%TO.P,U1,19,DGND*%
%TO.N,GND*%
X121525000Y-69537500D03*
%TO.P,U1,20,DVDD*%
%TO.N,3.3V*%
X120875000Y-69537500D03*
%TD*%
D11*
%TO.P,C13,1*%
%TO.N,Net-(U3--IN_A)*%
X118600000Y-95000000D03*
%TO.P,C13,2*%
%TO.N,Net-(U3-OUT_A)*%
X119240000Y-95000000D03*
%TD*%
%TO.P,R7,1*%
%TO.N,Net-(R5-Pad1)*%
X123225000Y-99600000D03*
%TO.P,R7,2*%
%TO.N,Net-(U3-OUT_A)*%
X123865000Y-99600000D03*
%TD*%
D16*
%TO.P,J3,1,Pin_1*%
%TO.N,+5V*%
X99200000Y-87000000D03*
D17*
%TO.P,J3,2,Pin_2*%
%TO.N,unconnected-(J3-Pin_2-Pad2)*%
X99200000Y-88000000D03*
%TO.P,J3,3,Pin_3*%
%TO.N,unconnected-(J3-Pin_3-Pad3)*%
X99200000Y-89000000D03*
%TO.P,J3,4,Pin_4*%
%TO.N,GND*%
X99200000Y-90000000D03*
%TD*%
D11*
%TO.P,R8,1*%
%TO.N,Net-(R6-Pad1)*%
X118700000Y-99550000D03*
%TO.P,R8,2*%
%TO.N,Net-(U3-OUT_B)*%
X119340000Y-99550000D03*
%TD*%
%TO.P,R5,1*%
%TO.N,Net-(R5-Pad1)*%
X123225000Y-94800000D03*
%TO.P,R5,2*%
%TO.N,Net-(U3--IN_A)*%
X123865000Y-94800000D03*
%TD*%
D18*
%TO.P,U3,1,OUT_A*%
%TO.N,Net-(U3-OUT_A)*%
X117355000Y-103240000D03*
D19*
%TO.P,U3,2,-IN_A*%
%TO.N,Net-(U3--IN_A)*%
X117355000Y-105780000D03*
%TO.P,U3,3,+IN_A*%
%TO.N,AGND*%
X117355000Y-108320000D03*
%TO.P,U3,4,V-*%
X117355000Y-110860000D03*
%TO.P,U3,5,+IN_B*%
X125295000Y-110860000D03*
%TO.P,U3,6,-IN_B*%
%TO.N,Net-(U3--IN_B)*%
X125295000Y-108320000D03*
%TO.P,U3,7,OUT_B*%
%TO.N,Net-(U3-OUT_B)*%
X125295000Y-105780000D03*
%TO.P,U3,8,V+*%
%TO.N,+5V*%
X125295000Y-103240000D03*
%TD*%
D11*
%TO.P,R2,1*%
%TO.N,Net-(U1-OUTL)*%
X124305000Y-80750000D03*
%TO.P,R2,2*%
%TO.N,Net-(C11-Pad2)*%
X124945000Y-80750000D03*
%TD*%
%TO.P,C10,1*%
%TO.N,AGND*%
X128760000Y-80800000D03*
%TO.P,C10,2*%
%TO.N,Net-(C10-Pad2)*%
X129400000Y-80800000D03*
%TD*%
%TO.P,C11,1*%
%TO.N,AGND*%
X131480000Y-80800000D03*
%TO.P,C11,2*%
%TO.N,Net-(C11-Pad2)*%
X132120000Y-80800000D03*
%TD*%
%TO.P,C1,1*%
%TO.N,+5V*%
X103880000Y-84800000D03*
%TO.P,C1,2*%
%TO.N,GND*%
X104520000Y-84800000D03*
%TD*%
D13*
%TO.P,C3,1*%
%TO.N,AGND*%
X131640000Y-87400000D03*
%TO.P,C3,2*%
%TO.N,Net-(C3-Pad2)*%
X131000000Y-87400000D03*
%TD*%
D20*
%TO.P,RV1,1,1*%
%TO.N,Net-(C12-Pad1)*%
X137400000Y-112700000D03*
%TO.P,RV1,2,2*%
%TO.N,Net-(R5-Pad1)*%
X139400000Y-112700000D03*
%TO.P,RV1,3,3*%
%TO.N,AGND*%
X141400000Y-112700000D03*
%TO.P,RV1,4,4*%
%TO.N,Net-(C3-Pad2)*%
X135400000Y-112700000D03*
%TO.P,RV1,5,5*%
%TO.N,Net-(R6-Pad1)*%
X133400000Y-112700000D03*
%TO.P,RV1,6,6*%
%TO.N,AGND*%
X143400000Y-112700000D03*
%TD*%
D11*
%TO.P,C14,1*%
%TO.N,Net-(U3--IN_B)*%
X118600000Y-97450000D03*
%TO.P,C14,2*%
%TO.N,Net-(U3-OUT_B)*%
X119240000Y-97450000D03*
%TD*%
%TO.P,C2,1*%
%TO.N,3.3V*%
X106600000Y-84800000D03*
%TO.P,C2,2*%
%TO.N,GND*%
X107240000Y-84800000D03*
%TD*%
%TO.P,C5,1*%
%TO.N,Net-(U1-CAPP)*%
X122935000Y-78200000D03*
%TO.P,C5,2*%
%TO.N,Net-(U1-CAPM)*%
X123575000Y-78200000D03*
%TD*%
%TO.P,C12,1*%
%TO.N,Net-(C12-Pad1)*%
X130935000Y-84400000D03*
%TO.P,C12,2*%
%TO.N,AGND*%
X131575000Y-84400000D03*
%TD*%
%TO.P,R1,1*%
%TO.N,Net-(C11-Pad2)*%
X128825000Y-84625000D03*
%TO.P,R1,2*%
%TO.N,Net-(C12-Pad1)*%
X129465000Y-84625000D03*
%TD*%
D21*
%TO.N,GND*%
X122275000Y-68075000D03*
%TO.N,AGND*%
X127725000Y-100875000D03*
X129700000Y-100875000D03*
X133075000Y-86500000D03*
X132225707Y-87424293D03*
%TO.N,+5V*%
X104200000Y-90250000D03*
X123825000Y-103250000D03*
%TO.N,GND*%
X119153657Y-74174998D03*
%TO.N,AGND*%
X126075000Y-73950000D03*
X119675000Y-67500000D03*
%TO.N,GND*%
X121500000Y-79025000D03*
X119190735Y-79040735D03*
X122175000Y-76325000D03*
%TO.N,AGND*%
X131675000Y-86875000D03*
X131700000Y-85025000D03*
X126150000Y-76450000D03*
%TO.N,Net-(C10-Pad2)*%
X129437504Y-81150001D03*
X127050000Y-81150000D03*
%TO.N,Net-(C11-Pad2)*%
X132075000Y-81375000D03*
X124900000Y-81375000D03*
X128850000Y-84075000D03*
%TO.N,Net-(C12-Pad1)*%
X130900000Y-84900000D03*
X129396000Y-85134600D03*
%TO.N,Net-(U3-OUT_A)*%
X119300000Y-95600000D03*
X123829000Y-98850000D03*
X134300000Y-77700000D03*
%TO.N,Net-(U3--IN_B)*%
X124700000Y-97200000D03*
X118600000Y-98275000D03*
%TO.N,Net-(U3-OUT_B)*%
X120075000Y-99000000D03*
X138300000Y-77550000D03*
X119802474Y-97399000D03*
%TO.N,Net-(U1-OUTL)*%
X124125000Y-74225000D03*
X124225000Y-80200000D03*
%TO.N,Net-(U1-OUTR)*%
X124765693Y-73745926D03*
X126350000Y-80050000D03*
%TO.N,Net-(R5-Pad1)*%
X125029000Y-100100000D03*
X123250000Y-94150000D03*
X139325000Y-111400000D03*
%TD*%
D22*
%TO.N,GND*%
X121565000Y-68075000D02*
X122275000Y-68075000D01*
%TO.N,AGND*%
X129700000Y-100875000D02*
X127725000Y-100875000D01*
X131700000Y-85125000D02*
X131700000Y-85025000D01*
X131675000Y-86875000D02*
X131676414Y-86875000D01*
X131676414Y-86875000D02*
X132225707Y-87424293D01*
X133075000Y-86500000D02*
X131700000Y-85125000D01*
%TO.N,+5V*%
X125295000Y-103240000D02*
X123835000Y-103240000D01*
X123835000Y-103240000D02*
X123825000Y-103250000D01*
X104200000Y-90250000D02*
X104200000Y-89412500D01*
X104200000Y-89412500D02*
X104262500Y-89350000D01*
%TO.N,AGND*%
X117355000Y-110860000D02*
X117355000Y-108320000D01*
X125295000Y-110860000D02*
X117355000Y-110860000D01*
X141400000Y-112700000D02*
X143400000Y-112700000D01*
X141400000Y-112700000D02*
X140349000Y-113751000D01*
X140349000Y-113751000D02*
X128186000Y-113751000D01*
X128186000Y-113751000D02*
X125295000Y-110860000D01*
X128760000Y-80800000D02*
X128760000Y-80640130D01*
X128760000Y-80640130D02*
X129101130Y-80299000D01*
X129101130Y-80299000D02*
X130979000Y-80299000D01*
X130979000Y-80299000D02*
X131480000Y-80800000D01*
X126150000Y-76450000D02*
X128760000Y-79060000D01*
X128760000Y-79060000D02*
X128760000Y-80800000D01*
X131480000Y-80800000D02*
X131474000Y-80806000D01*
X131474000Y-80806000D02*
X131474000Y-84299000D01*
X131474000Y-84299000D02*
X131575000Y-84400000D01*
%TO.N,3.3V*%
X122255075Y-73144926D02*
X125425000Y-73144926D01*
X125425000Y-75262500D02*
X125425000Y-73144926D01*
%TO.N,GND*%
X119153657Y-74174998D02*
X118899458Y-74174998D01*
X118899458Y-74174998D02*
X118405000Y-73680540D01*
X118405000Y-73680540D02*
X118405000Y-73475000D01*
%TO.N,3.3V*%
X120875000Y-75262500D02*
X120875000Y-74525001D01*
X120875000Y-74525001D02*
X122255075Y-73144926D01*
X125425000Y-73144926D02*
X127679926Y-73144926D01*
X127679926Y-73144926D02*
X128735000Y-74200000D01*
%TO.N,AGND*%
X129375000Y-74200000D02*
X129375000Y-74359870D01*
X129375000Y-74359870D02*
X129033870Y-74701000D01*
X129033870Y-74701000D02*
X127470870Y-74701000D01*
X127470870Y-74701000D02*
X126719870Y-73950000D01*
X126719870Y-73950000D02*
X126075000Y-73950000D01*
%TO.N,3.3V*%
X128735000Y-74200000D02*
X128735000Y-71855000D01*
X128735000Y-71855000D02*
X128680000Y-71800000D01*
%TO.N,AGND*%
X129320000Y-71800000D02*
X129320000Y-74145000D01*
X129320000Y-74145000D02*
X129375000Y-74200000D01*
X133150000Y-69350000D02*
X131770000Y-69350000D01*
X131770000Y-69350000D02*
X129320000Y-71800000D01*
X119700000Y-66000000D02*
X119700000Y-67475000D01*
X119700000Y-67475000D02*
X119675000Y-67500000D01*
X126075000Y-73950000D02*
X126075000Y-75262500D01*
%TO.N,3.3V*%
X120875000Y-69537500D02*
X117874000Y-72538500D01*
X117874000Y-72538500D02*
X117874000Y-73743870D01*
X119392630Y-75262500D02*
X120875000Y-75262500D01*
X117874000Y-73743870D02*
X119392630Y-75262500D01*
%TO.N,GND*%
X118405000Y-73475000D02*
X118405000Y-73315130D01*
X118405000Y-73315130D02*
X121525000Y-70195130D01*
X121525000Y-70195130D02*
X121525000Y-69537500D01*
X121565000Y-68075000D02*
X121565000Y-69497500D01*
X121565000Y-69497500D02*
X121525000Y-69537500D01*
%TO.N,3.3V*%
X120925000Y-68075000D02*
X120925000Y-69487500D01*
X120925000Y-69487500D02*
X120875000Y-69537500D01*
%TO.N,Net-(U1-LDOO)*%
X119045000Y-73475000D02*
X122175000Y-70345000D01*
X122175000Y-70345000D02*
X122175000Y-69537500D01*
%TO.N,GND*%
X121500000Y-79025000D02*
X125149999Y-79025000D01*
X125149999Y-79025000D02*
X125775000Y-78399999D01*
X125775000Y-78399999D02*
X125775000Y-78200000D01*
%TO.N,3.3V*%
X120880000Y-78200000D02*
X120880000Y-75267500D01*
X120880000Y-75267500D02*
X120875000Y-75262500D01*
%TO.N,GND*%
X107240000Y-84800000D02*
X113431470Y-84800000D01*
X113431470Y-84800000D02*
X119190735Y-79040735D01*
X121500000Y-79025000D02*
X121500000Y-78220000D01*
X121500000Y-78220000D02*
X121520000Y-78200000D01*
X99200000Y-90000000D02*
X98598960Y-90000000D01*
X98598960Y-90000000D02*
X98474000Y-89875040D01*
X98474000Y-89875040D02*
X98474000Y-86274000D01*
X98474000Y-86274000D02*
X100449000Y-84299000D01*
X104520000Y-84600001D02*
X104520000Y-84800000D01*
X100449000Y-84299000D02*
X104218999Y-84299000D01*
X104218999Y-84299000D02*
X104520000Y-84600001D01*
%TO.N,3.3V*%
X106600000Y-84800000D02*
X106600000Y-84959870D01*
X106941130Y-85301000D02*
X113779000Y-85301000D01*
X106600000Y-84959870D02*
X106941130Y-85301000D01*
X113779000Y-85301000D02*
X120880000Y-78200000D01*
%TO.N,GND*%
X104520000Y-84800000D02*
X105021000Y-84299000D01*
X105021000Y-84299000D02*
X106938999Y-84299000D01*
X106938999Y-84299000D02*
X107240000Y-84600001D01*
X107240000Y-84600001D02*
X107240000Y-84800000D01*
%TO.N,+5V*%
X103812500Y-87000000D02*
X103812500Y-86962500D01*
X103812500Y-86962500D02*
X103880000Y-86895000D01*
X103880000Y-86895000D02*
X103880000Y-84800000D01*
%TO.N,3.3V*%
X106537500Y-87450000D02*
X106537500Y-84862500D01*
X106537500Y-84862500D02*
X106600000Y-84800000D01*
%TO.N,+5V*%
X104262500Y-89350000D02*
X104616968Y-89350000D01*
X104616968Y-89350000D02*
X105226000Y-88740968D01*
X105226000Y-88740968D02*
X105226000Y-87751001D01*
X104924999Y-87450000D02*
X104262500Y-87450000D01*
X105226000Y-87751001D02*
X104924999Y-87450000D01*
%TO.N,GND*%
X104262500Y-88400000D02*
X100826720Y-88400000D01*
X100826720Y-88400000D02*
X99226720Y-90000000D01*
X99226720Y-90000000D02*
X99200000Y-90000000D01*
%TO.N,+5V*%
X104262500Y-87450000D02*
X103812500Y-87000000D01*
X103812500Y-87000000D02*
X99200000Y-87000000D01*
%TO.N,GND*%
X121425000Y-78295000D02*
X121520000Y-78200000D01*
X118380000Y-73500000D02*
X118405000Y-73475000D01*
X125850000Y-78125000D02*
X125775000Y-78200000D01*
X122175000Y-76325000D02*
X122175000Y-75262500D01*
X121550000Y-68060000D02*
X121565000Y-68075000D01*
X104600000Y-84880000D02*
X104520000Y-84800000D01*
X122200000Y-75237500D02*
X122175000Y-75262500D01*
X107200000Y-84840000D02*
X107240000Y-84800000D01*
%TO.N,+5V*%
X104162500Y-87550000D02*
X104262500Y-87450000D01*
%TO.N,3.3V*%
X121000000Y-69662500D02*
X120875000Y-69537500D01*
X128675000Y-74260000D02*
X128735000Y-74200000D01*
X120850000Y-68150000D02*
X120925000Y-68075000D01*
%TO.N,Net-(C3-Pad2)*%
X135400000Y-102935844D02*
X135400000Y-112700000D01*
X131000000Y-98535844D02*
X135400000Y-102935844D01*
X129465000Y-87025000D02*
X130625000Y-87025000D01*
X131000000Y-87400000D02*
X131000000Y-98535844D01*
X130625000Y-87025000D02*
X131000000Y-87400000D01*
%TO.N,AGND*%
X131640000Y-86910000D02*
X131675000Y-86875000D01*
X131700000Y-84525000D02*
X131575000Y-84400000D01*
X126050000Y-75237500D02*
X126075000Y-75262500D01*
X131640000Y-87400000D02*
X131640000Y-86910000D01*
X126150000Y-76450000D02*
X126150000Y-75337500D01*
X126150000Y-75337500D02*
X126075000Y-75262500D01*
X131700000Y-85025000D02*
X131700000Y-84525000D01*
%TO.N,Net-(U1-CAPP)*%
X122935000Y-78200000D02*
X122935000Y-77976136D01*
X122935000Y-77976136D02*
X121525000Y-76566136D01*
X121525000Y-76566136D02*
X121525000Y-75262500D01*
%TO.N,Net-(U1-CAPM)*%
X122825000Y-75919870D02*
X122825000Y-75262500D01*
X123575000Y-78200000D02*
X123575000Y-76669870D01*
X123575000Y-76669870D02*
X122825000Y-75919870D01*
%TO.N,Net-(U1-VNEG)*%
X125135000Y-77662770D02*
X125135000Y-78200000D01*
X123475000Y-75262500D02*
X123475000Y-76002770D01*
X123475000Y-76002770D02*
X125135000Y-77662770D01*
%TO.N,Net-(C10-Pad2)*%
X127070000Y-80700000D02*
X127070000Y-81130000D01*
X127070000Y-81130000D02*
X127050000Y-81150000D01*
X128825000Y-86865130D02*
X128825000Y-87025000D01*
X129437504Y-81150001D02*
X129996000Y-81708497D01*
X129437504Y-80837504D02*
X129400000Y-80800000D01*
X129437504Y-81150001D02*
X129437504Y-80837504D01*
X129996000Y-85694130D02*
X128825000Y-86865130D01*
X129996000Y-81708497D02*
X129996000Y-85694130D01*
%TO.N,Net-(C11-Pad2)*%
X124945000Y-81330000D02*
X124900000Y-81375000D01*
X132075000Y-81375000D02*
X132075000Y-80845000D01*
X128850000Y-84600000D02*
X128825000Y-84625000D01*
X124945000Y-80750000D02*
X124945000Y-81330000D01*
X128850000Y-84075000D02*
X128850000Y-84600000D01*
X132075000Y-80845000D02*
X132120000Y-80800000D01*
%TO.N,Net-(C12-Pad1)*%
X129465000Y-85065600D02*
X129396000Y-85134600D01*
X137400000Y-91750057D02*
X137400000Y-112700000D01*
X130900000Y-84900000D02*
X130900000Y-84435000D01*
X129465000Y-84625000D02*
X129465000Y-85065600D01*
X130900000Y-85250057D02*
X137400000Y-91750057D01*
X130900000Y-84900000D02*
X130900000Y-85250057D01*
X130900000Y-84435000D02*
X130935000Y-84400000D01*
%TO.N,Net-(U3-OUT_A)*%
X119240000Y-95540000D02*
X119300000Y-95600000D01*
X119240000Y-95000000D02*
X119240000Y-95540000D01*
X123829000Y-98850000D02*
X123829000Y-99564000D01*
X134300000Y-75900000D02*
X134250000Y-75850000D01*
X134300000Y-77700000D02*
X134300000Y-75900000D01*
X123829000Y-99564000D02*
X123865000Y-99600000D01*
%TO.N,Net-(U3--IN_A)*%
X116489000Y-104914000D02*
X117355000Y-105780000D01*
X122065999Y-96799000D02*
X118451130Y-96799000D01*
X123865000Y-93915057D02*
X123498943Y-93549000D01*
X119891130Y-93549000D02*
X118600000Y-94840130D01*
X123865000Y-94999999D02*
X122065999Y-96799000D01*
X118451130Y-96799000D02*
X116489000Y-98761130D01*
X116489000Y-98761130D02*
X116489000Y-104914000D01*
X118600000Y-94840130D02*
X118600000Y-95000000D01*
X123498943Y-93549000D02*
X119891130Y-93549000D01*
X123865000Y-94800000D02*
X123865000Y-94999999D01*
X123865000Y-94800000D02*
X123865000Y-93915057D01*
%TO.N,Net-(U3--IN_B)*%
X123865000Y-97200000D02*
X124700000Y-97200000D01*
X118600000Y-98275000D02*
X118600000Y-97450000D01*
%TO.N,Net-(U3-OUT_B)*%
X119240000Y-97450000D02*
X119751474Y-97450000D01*
X125295000Y-105730000D02*
X125325000Y-105700000D01*
X120075000Y-99000000D02*
X119890000Y-99000000D01*
X125295000Y-105780000D02*
X119340000Y-99825000D01*
X138300000Y-77550000D02*
X138300000Y-75900000D01*
X119340000Y-99825000D02*
X119340000Y-99550000D01*
X138300000Y-75900000D02*
X138250000Y-75850000D01*
X119751474Y-97450000D02*
X119802474Y-97399000D01*
X119890000Y-99000000D02*
X119340000Y-99550000D01*
%TO.N,Net-(U1-LDOO)*%
X122175000Y-69537500D02*
X122175000Y-68880130D01*
%TO.N,DAT*%
X123962795Y-66262795D02*
X123700000Y-66000000D01*
X124775000Y-67075000D02*
X123962795Y-66262795D01*
X124775000Y-69537500D02*
X124775000Y-67482530D01*
X124775000Y-67482530D02*
X124775000Y-67075000D01*
%TO.N,SCK*%
X126075000Y-67942500D02*
X126075000Y-69537500D01*
X127700000Y-66317500D02*
X126075000Y-67942500D01*
X127700000Y-66000000D02*
X127700000Y-66317500D01*
%TO.N,LCK*%
X121652000Y-66000000D02*
X124125000Y-68473000D01*
X124125000Y-68473000D02*
X124125000Y-69537500D01*
%TO.N,BCK*%
X125700000Y-66000000D02*
X125425000Y-66275000D01*
X125425000Y-66275000D02*
X125425000Y-69537500D01*
%TO.N,Net-(U1-OUTL)*%
X124225000Y-80670000D02*
X124305000Y-80750000D01*
X124125000Y-75262500D02*
X124125000Y-74225000D01*
X124225000Y-80200000D02*
X124225000Y-80670000D01*
%TO.N,Net-(U1-OUTR)*%
X126350000Y-80050000D02*
X126350000Y-80620000D01*
X124775000Y-75262500D02*
X124763048Y-75250548D01*
X126350000Y-80620000D02*
X126430000Y-80700000D01*
X124763048Y-75250548D02*
X124763048Y-73748571D01*
X124763048Y-73748571D02*
X124765693Y-73745926D01*
%TO.N,Net-(R5-Pad1)*%
X123225000Y-99759870D02*
X123565130Y-100100000D01*
X123225000Y-99600000D02*
X123225000Y-99759870D01*
X139400000Y-112700000D02*
X139400000Y-111475000D01*
X139400000Y-111475000D02*
X139325000Y-111400000D01*
X123565130Y-100100000D02*
X125029000Y-100100000D01*
X123250000Y-94150000D02*
X123250000Y-94775000D01*
X123250000Y-94775000D02*
X123225000Y-94800000D01*
%TO.N,Net-(R6-Pad1)*%
X120850001Y-97200000D02*
X118700000Y-99350001D01*
X118700000Y-99350001D02*
X118700000Y-99550000D01*
X133400000Y-107534870D02*
X123225000Y-97359870D01*
X123225000Y-97359870D02*
X123225000Y-97200000D01*
X123225000Y-97200000D02*
X120850001Y-97200000D01*
X133400000Y-112700000D02*
X133400000Y-107534870D01*
%TD*%
M02*
