M48
; DRILL file {KiCad 9.0.2} date 2025-08-05T13:11:20+0530
; FORMAT={-:-/ absolute / metric / decimal}
; #@! TF.CreationDate,2025-08-05T13:11:20+05:30
; #@! TF.GenerationSoftware,Kicad,Pcbnew,9.0.2
; #@! TF.FileFunction,Plated,1,2,PTH
FMAT,2
METRIC
; #@! TA.AperFunction,Plated,PTH,ViaDrill
T1C0.300
; #@! TA.AperFunction,Plated,PTH,ComponentDrill
T2C0.500
; #@! TA.AperFunction,Plated,PTH,ComponentDrill
T3C0.780
; #@! TA.AperFunction,Plated,PTH,ComponentDrill
T4C1.000
%
G90
G05
T1
X104.2Y-90.25
X118.6Y-98.275
X119.154Y-74.175
X119.191Y-79.041
X119.3Y-95.6
X119.675Y-67.5
X119.802Y-97.399
X120.075Y-99.0
X121.5Y-79.025
X122.175Y-76.325
X122.275Y-68.075
X123.25Y-94.15
X123.825Y-103.25
X123.829Y-98.85
X124.125Y-74.225
X124.225Y-80.2
X124.7Y-97.2
X124.766Y-73.746
X124.9Y-81.375
X125.029Y-100.1
X126.075Y-73.95
X126.15Y-76.45
X126.35Y-80.05
X127.05Y-81.15
X127.725Y-100.875
X128.85Y-84.075
X129.396Y-85.135
X129.438Y-81.15
X129.7Y-100.875
X130.9Y-84.9
X131.675Y-86.875
X131.7Y-85.025
X132.075Y-81.375
X132.226Y-87.424
X133.075Y-86.5
X134.3Y-77.7
X138.3Y-77.55
X139.325Y-111.4
T2
X99.2Y-87.0
X99.2Y-88.0
X99.2Y-89.0
X99.2Y-90.0
T3
X117.355Y-103.24
X117.355Y-105.78
X117.355Y-108.32
X117.355Y-110.86
X125.295Y-103.24
X125.295Y-105.78
X125.295Y-108.32
X125.295Y-110.86
T4
X119.7Y-66.0
X121.652Y-66.0
X123.7Y-66.0
X125.7Y-66.0
X127.7Y-66.0
X129.7Y-66.0
X133.4Y-112.7
X135.4Y-112.7
X137.4Y-112.7
X139.4Y-112.7
X141.4Y-112.7
X143.4Y-112.7
M30
